<?xml version="1.0" encoding="utf-8"?>
<!-- Generator: Adobe Illustrator 18.0.0, SVG Export Plug-In . SVG Version: 6.00 Build 0)  -->
<!DOCTYPE svg PUBLIC "-//W3C//DTD SVG 1.1//EN" "http://www.w3.org/Graphics/SVG/1.1/DTD/svg11.dtd">
<svg version="1.1" id="Capa_1" xmlns="http://www.w3.org/2000/svg" xmlns:xlink="http://www.w3.org/1999/xlink" x="0px" y="0px"
	 viewBox="0 0 320 320" enable-background="new 0 0 320 320" xml:space="preserve">
<g>
	<circle stroke="#CECCCD" stroke-width="9.2813" stroke-miterlimit="10" cx="160" cy="160" r="153.915"/>
	<path fill="#CECCCD" d="M171.602,118.435c-10.441-5.801,34.805-6.252,34.805-6.252s-15.921-17.78-11.215-21.656
		c3.287-2.707,13.18,4.903,13.18,4.903s-1.135-10.857-0.031-15.345c1.45-5.897,8.121,15.856,8.121,15.856s0.052-19.155-1.934-25.137
		c-1.619-4.877-7.831-12.375-15.469-13.535c-10.651-1.618-24.53,23.769-33.645,30.551c-20.399,15.179-24.557-1.16-59.942,42.152
		c-8.043,9.845-45.246,23.203-45.246,23.203s35.064,20.589,43.313,27.844c16.92,14.882,18.304,26.428,17.918,38.865
		c-0.258,8.314-7.739,30.094-13.277,34.611c-6.639,5.414,24.155-16.502,33.645-45.633c5.543-17.016-6.378,43.293-23.848,52.014
		c-4.655,2.324,21.885-8.929,39.703-45.44c6.574-13.471-6.786,33.49-27.457,50.983c-12.736,10.777,39.961-25.266,40.477-46.922
		c0.178-7.469-5.923,30.231-26.297,53.883c0,0,55.688-55.688,37.254-79.213c-7.328-9.352-17.016-15.759-9.281-18.563
		c10.149-3.679,16.242-14.695,16.242-14.695s-13.781,0.896-15.082-2.707c-2.448-6.776,24.44-17.876,18.563-22.043"/>
	<path fill="#FFFFFF" d="M178.756,178.699c22.236-15.082,15.469-23.397,6.768-24.17c-5.232-0.465,16.822-10.635,13.249-20.191
		c-2.555-6.833-30.412-16.848-23.11-17.395c14.502-1.086,39.252,2.523,37.705-2.117c-5.806-17.417-13.729-13.857,12.955-11.224
		c3.623,0.358-2.707-14.309-2.707-14.309s10.688,15.353,12.375,21.27c5.479,19.217-22.236,55.651-28.231,70.77
		c-5.794,14.614,9.4,14.539-0.967,35.846c-4.834,9.935-62.219,70.096-53.947,59.555c8.895-11.334,40.025-49.694,41.186-71.93
		C194.603,193.848,172.118,183.201,178.756,178.699z"/>
	<path fill="#CECCCD" d="M114.045,112.312c-3.609,1.289-27.908,8.057-27.908,8.057s12.499,8.582,13.277,7.605
		C106.504,119.08,118.522,110.713,114.045,112.312z"/>
	<path d="M158.518,101.416c-3.609,1.289-23.268,13.793-23.268,13.793s9.992,0.8,10.828-0.128
		C152.266,108.208,162.994,99.817,158.518,101.416z"/>
</g>
</svg>
